<?xml version="1.0" standalone="no"?>
<!DOCTYPE svg PUBLIC "-//W3C//DTD SVG 20010904//EN"
 "http://www.w3.org/TR/2001/REC-SVG-20010904/DTD/svg10.dtd">
<svg version="1.0" xmlns="http://www.w3.org/2000/svg"
 width="32.000000pt" height="32.000000pt" viewBox="0 0 32.000000 32.000000"
 preserveAspectRatio="xMidYMid meet">

<g transform="translate(0.000000,32.000000) scale(0.100000,-0.100000)"
fill="#000000" stroke="none">
<path d="M98 274 c-23 -7 -23 -17 2 -39 20 -18 20 -19 -27 -34 -57 -19 -64
-35 -23 -49 35 -13 37 -22 10 -47 -33 -30 -25 -40 28 -37 39 3 49 8 59 29 7
13 9 31 7 38 -8 21 15 55 37 55 15 0 25 -11 36 -40 18 -45 37 -52 48 -17 l8
22 4 -24 c3 -16 -1 -29 -13 -38 -20 -15 -13 -28 11 -20 11 5 15 20 15 55 0 27
3 64 7 82 6 32 5 33 -23 27 -19 -3 -37 1 -55 14 -28 19 -100 32 -131 23z"/>
<path d="M190 129 c0 -11 5 -17 10 -14 6 3 10 13 10 21 0 8 -4 14 -10 14 -5 0
-10 -9 -10 -21z"/>
<path d="M170 70 c0 -6 7 -10 15 -10 8 0 15 2 15 4 0 2 -7 6 -15 10 -8 3 -15
1 -15 -4z"/>
</g>
</svg>
